<svg width="512" height="512" viewBox="0 0 24 24" xmlns="http://www.w3.org/2000/svg">
    <rect width="24" height="24" fill="#101418"/>
     <g transform="translate(2 2) scale(0.83)">
        <svg fill="none" stroke="#00aaff" stroke-width="2" stroke-linecap="round" stroke-linejoin="round" viewBox="0 0 24 24">
            <path d="M12 2a10 10 0 0 0-10 10c0 4.42 2.87 8.17 6.84 9.5.5.08.66-.23.66-.5v-1.69c-2.77.6-3.36-1.34-3.36-1.34-.46-1.16-1.11-1.47-1.11-1.47-.91-.62.07-.6.07-.6 1 .07 1.53 1.03 1.53 1.03.87 1.5 2.3.93 2.87.71.09-.55.34-1.04.62-1.28-2.22-.25-4.55-1.11-4.55-4.92 0-1.1.39-1.99 1.03-2.69a3.6 3.6 0 0 1 .1-2.64s.84-.27 2.75 1.02a9.58 9.58 0 0 1 5 0c1.91-1.29 2.75-1.02 2.75-1.02.54 1.3.15 2.3.1 2.64.64.7 1.03 1.6 1.03 2.69 0 3.82-2.34 4.66-4.57 4.91.36.31.69.92.69 1.85v2.75c0 .27.16.59.67.5C19.14 20.16 22 16.42 22 12A10 10 0 0 0 12 2z"/>
            <path d="M12 11.5a2.5 2.5 0 0 1 0-5 2.5 2.5 0 0 1 0 5z"/>
            <path d="M12 4V2"/>
            <path d="M12 22v-2"/>
            <path d="M20 12h2"/>
            <path d="M2 12h2"/>
            <path d="M18.36 5.64l1.42-1.42"/>
            <path d="M4.22 19.78l1.42-1.42"/>
            <path d="M18.36 18.36l1.42 1.42"/>
            <path d="M4.22 4.22l1.42 1.42"/>
        </svg>
    </g>
</svg>
